<svg width="128" height="19" viewBox="0 0 128 19" fill="none" xmlns="http://www.w3.org/2000/svg">
<path d="M10.9858 5.56534C10.9176 4.87784 10.625 4.34375 10.108 3.96307C9.59091 3.58239 8.8892 3.39204 8.00284 3.39204C7.40057 3.39204 6.89205 3.47727 6.47727 3.64773C6.0625 3.8125 5.74432 4.04261 5.52273 4.33807C5.30682 4.63352 5.19886 4.96875 5.19886 5.34375C5.1875 5.65625 5.25284 5.92898 5.39489 6.16193C5.54261 6.39489 5.74432 6.59659 6 6.76705C6.25568 6.93182 6.55114 7.0767 6.88636 7.2017C7.22159 7.32102 7.57955 7.4233 7.96023 7.50852L9.52841 7.88352C10.2898 8.05398 10.9886 8.28125 11.625 8.56534C12.2614 8.84943 12.8125 9.19886 13.2784 9.61364C13.7443 10.0284 14.1051 10.517 14.3608 11.0795C14.6222 11.642 14.7557 12.2869 14.7614 13.0142C14.7557 14.0824 14.483 15.0085 13.9432 15.7926C13.4091 16.571 12.6364 17.1761 11.625 17.608C10.6193 18.0341 9.40625 18.2472 7.9858 18.2472C6.5767 18.2472 5.34943 18.0312 4.30398 17.5994C3.2642 17.1676 2.4517 16.5284 1.86648 15.6818C1.28693 14.8295 0.982955 13.7756 0.954545 12.5199H4.52557C4.56534 13.1051 4.73295 13.5937 5.02841 13.9858C5.32955 14.3722 5.73011 14.6648 6.23011 14.8636C6.7358 15.0568 7.30682 15.1534 7.94318 15.1534C8.56818 15.1534 9.1108 15.0625 9.57102 14.8807C10.0369 14.6989 10.3977 14.446 10.6534 14.1222C10.9091 13.7983 11.0369 13.4261 11.0369 13.0057C11.0369 12.6136 10.9205 12.2841 10.6875 12.017C10.4602 11.75 10.125 11.5227 9.68182 11.3352C9.24432 11.1477 8.70739 10.9773 8.07102 10.8239L6.17045 10.3466C4.69886 9.98864 3.53693 9.42898 2.68466 8.66761C1.83239 7.90625 1.40909 6.88068 1.41477 5.59091C1.40909 4.53409 1.69034 3.6108 2.25852 2.82102C2.83239 2.03125 3.61932 1.41477 4.61932 0.971591C5.61932 0.528409 6.75568 0.306818 8.02841 0.306818C9.32386 0.306818 10.4545 0.528409 11.4205 0.971591C12.392 1.41477 13.1477 2.03125 13.6875 2.82102C14.2273 3.6108 14.5057 4.52557 14.5227 5.56534H10.9858ZM20.9084 18.2472C20.0732 18.2472 19.3288 18.1023 18.6754 17.8125C18.022 17.517 17.505 17.0824 17.1243 16.5085C16.7493 15.929 16.5618 15.2074 16.5618 14.3438C16.5618 13.6165 16.6953 13.0057 16.9624 12.5114C17.2294 12.017 17.593 11.6193 18.0533 11.3182C18.5135 11.017 19.0362 10.7898 19.6214 10.6364C20.2124 10.483 20.8317 10.375 21.4794 10.3125C22.2408 10.233 22.8544 10.1591 23.3203 10.0909C23.7862 10.017 24.1243 9.90909 24.3345 9.76705C24.5447 9.625 24.6499 9.41477 24.6499 9.13636V9.08523C24.6499 8.54545 24.4794 8.12784 24.1385 7.83239C23.8033 7.53693 23.326 7.3892 22.7067 7.3892C22.0533 7.3892 21.5334 7.53409 21.147 7.82386C20.7607 8.10795 20.505 8.46591 20.38 8.89773L17.022 8.625C17.1925 7.82955 17.5277 7.14205 18.0277 6.5625C18.5277 5.97727 19.1726 5.52841 19.9624 5.21591C20.7578 4.89773 21.6783 4.73864 22.7237 4.73864C23.451 4.73864 24.147 4.82386 24.8118 4.99432C25.4822 5.16477 26.076 5.42898 26.593 5.78693C27.1158 6.14489 27.5277 6.60511 27.8288 7.16761C28.13 7.72443 28.2805 8.39205 28.2805 9.17045V18H24.8374V16.1847H24.7351C24.5249 16.5938 24.2436 16.9545 23.8913 17.267C23.5391 17.5739 23.1158 17.8153 22.6214 17.9915C22.1271 18.1619 21.5561 18.2472 20.9084 18.2472ZM21.9482 15.7415C22.4822 15.7415 22.9538 15.6364 23.3629 15.4261C23.772 15.2102 24.093 14.9205 24.326 14.5568C24.5589 14.1932 24.6754 13.7812 24.6754 13.321V11.9318C24.5618 12.0057 24.4055 12.0739 24.2067 12.1364C24.0135 12.1932 23.7947 12.2472 23.5504 12.2983C23.3061 12.3437 23.0618 12.3864 22.8175 12.4261C22.5732 12.4602 22.3516 12.4915 22.1527 12.5199C21.7266 12.5824 21.3544 12.6818 21.0362 12.8182C20.718 12.9545 20.4709 13.1392 20.2947 13.3722C20.1186 13.5994 20.0305 13.8835 20.0305 14.2244C20.0305 14.7188 20.2095 15.0966 20.5675 15.358C20.9311 15.6136 21.3913 15.7415 21.9482 15.7415ZM31.0973 18V4.90909H34.5575V7.21875H34.7109C34.9837 6.4517 35.4382 5.84659 36.0746 5.40341C36.7109 4.96023 37.4723 4.73864 38.3587 4.73864C39.2564 4.73864 40.0206 4.96307 40.6513 5.41193C41.282 5.85511 41.7024 6.45739 41.9126 7.21875H42.049C42.3161 6.46875 42.799 5.86932 43.4979 5.42045C44.2024 4.96591 45.0348 4.73864 45.995 4.73864C47.2166 4.73864 48.2081 5.12784 48.9695 5.90625C49.7365 6.67898 50.12 7.77557 50.12 9.19602V18H46.4979V9.91193C46.4979 9.18466 46.3047 8.6392 45.9183 8.27557C45.532 7.91193 45.049 7.73011 44.4695 7.73011C43.8104 7.73011 43.2962 7.94034 42.9268 8.3608C42.5575 8.77557 42.3729 9.32386 42.3729 10.0057V18H38.853V9.83523C38.853 9.19318 38.6683 8.68182 38.299 8.30114C37.9354 7.92045 37.4553 7.73011 36.8587 7.73011C36.4553 7.73011 36.0916 7.83239 35.7678 8.03693C35.4496 8.2358 35.1967 8.51705 35.0092 8.88068C34.8217 9.23864 34.728 9.65909 34.728 10.142V18H31.0973Z" fill="#FEC45D"/>
<path d="M65.5994 0.545454H69.2472V12.7159C69.2472 13.8409 68.9943 14.8182 68.4886 15.6477C67.9886 16.4773 67.2926 17.1165 66.4006 17.5653C65.5085 18.0142 64.4716 18.2386 63.2898 18.2386C62.2386 18.2386 61.2841 18.054 60.4261 17.6847C59.5739 17.3097 58.8977 16.7415 58.3977 15.9801C57.8977 15.2131 57.6506 14.25 57.6562 13.0909H61.3295C61.3409 13.5511 61.4347 13.946 61.6108 14.2756C61.7926 14.5994 62.0398 14.8494 62.3523 15.0256C62.6705 15.196 63.0455 15.2812 63.4773 15.2812C63.9318 15.2812 64.3153 15.1847 64.6278 14.9915C64.946 14.7926 65.1875 14.5028 65.3523 14.1222C65.517 13.7415 65.5994 13.2727 65.5994 12.7159V0.545454ZM78.1449 18.2557C76.821 18.2557 75.6761 17.9744 74.7102 17.4119C73.75 16.8437 73.0085 16.054 72.4858 15.0426C71.9631 14.0256 71.7017 12.8466 71.7017 11.5057C71.7017 10.1534 71.9631 8.97159 72.4858 7.96023C73.0085 6.94318 73.75 6.15341 74.7102 5.59091C75.6761 5.02273 76.821 4.73864 78.1449 4.73864C79.4688 4.73864 80.6108 5.02273 81.571 5.59091C82.5369 6.15341 83.2812 6.94318 83.804 7.96023C84.3267 8.97159 84.5881 10.1534 84.5881 11.5057C84.5881 12.8466 84.3267 14.0256 83.804 15.0426C83.2812 16.054 82.5369 16.8437 81.571 17.4119C80.6108 17.9744 79.4688 18.2557 78.1449 18.2557ZM78.1619 15.4432C78.7642 15.4432 79.267 15.2727 79.6705 14.9318C80.0739 14.5852 80.3778 14.1136 80.5824 13.517C80.7926 12.9205 80.8977 12.2415 80.8977 11.4801C80.8977 10.7188 80.7926 10.0398 80.5824 9.44318C80.3778 8.84659 80.0739 8.375 79.6705 8.02841C79.267 7.68182 78.7642 7.50852 78.1619 7.50852C77.554 7.50852 77.0426 7.68182 76.6278 8.02841C76.2188 8.375 75.9091 8.84659 75.6989 9.44318C75.4943 10.0398 75.392 10.7188 75.392 11.4801C75.392 12.2415 75.4943 12.9205 75.6989 13.517C75.9091 14.1136 76.2188 14.5852 76.6278 14.9318C77.0426 15.2727 77.554 15.4432 78.1619 15.4432ZM90.5795 10.4318V18H86.9489V4.90909H90.4091V7.21875H90.5625C90.8523 6.45739 91.3381 5.85511 92.0199 5.41193C92.7017 4.96307 93.5284 4.73864 94.5 4.73864C95.4091 4.73864 96.2017 4.9375 96.8778 5.33523C97.554 5.73295 98.0795 6.30114 98.4545 7.03977C98.8295 7.77273 99.017 8.64773 99.017 9.66477V18H95.3864V10.3125C95.392 9.51136 95.1875 8.88636 94.7727 8.4375C94.358 7.98295 93.7869 7.75568 93.0597 7.75568C92.571 7.75568 92.1392 7.8608 91.7642 8.07102C91.3949 8.28125 91.1051 8.58807 90.8949 8.99148C90.6903 9.3892 90.5852 9.86932 90.5795 10.4318ZM107.844 18.2557C106.498 18.2557 105.339 17.983 104.367 17.4375C103.401 16.8864 102.657 16.108 102.134 15.1023C101.612 14.0909 101.35 12.8949 101.35 11.5142C101.35 10.1676 101.612 8.9858 102.134 7.96875C102.657 6.9517 103.393 6.15909 104.342 5.59091C105.296 5.02273 106.415 4.73864 107.7 4.73864C108.563 4.73864 109.367 4.87784 110.112 5.15625C110.862 5.42898 111.515 5.84091 112.072 6.39205C112.634 6.94318 113.072 7.63636 113.384 8.47159C113.697 9.30114 113.853 10.2727 113.853 11.3864V12.3835H102.799V10.1335H110.435C110.435 9.6108 110.322 9.14773 110.094 8.74432C109.867 8.34091 109.552 8.02557 109.148 7.7983C108.751 7.56534 108.288 7.44886 107.759 7.44886C107.208 7.44886 106.719 7.5767 106.293 7.83239C105.873 8.08239 105.543 8.42045 105.305 8.84659C105.066 9.26705 104.944 9.7358 104.938 10.2528V12.392C104.938 13.0398 105.058 13.5994 105.296 14.071C105.54 14.5426 105.884 14.9062 106.327 15.1619C106.771 15.4176 107.296 15.5455 107.904 15.5455C108.308 15.5455 108.677 15.4886 109.012 15.375C109.347 15.2614 109.634 15.0909 109.873 14.8636C110.112 14.6364 110.293 14.358 110.418 14.0284L113.776 14.25C113.606 15.0568 113.256 15.7614 112.728 16.3636C112.205 16.9602 111.529 17.4261 110.7 17.7614C109.876 18.0909 108.924 18.2557 107.844 18.2557ZM127.114 8.64205L123.79 8.84659C123.734 8.5625 123.612 8.30682 123.424 8.07955C123.237 7.84659 122.989 7.66193 122.683 7.52557C122.381 7.38352 122.021 7.3125 121.6 7.3125C121.038 7.3125 120.563 7.43182 120.177 7.67045C119.79 7.90341 119.597 8.21591 119.597 8.60795C119.597 8.92045 119.722 9.18466 119.972 9.40057C120.222 9.61648 120.651 9.78977 121.259 9.92045L123.629 10.3977C124.901 10.6591 125.85 11.0795 126.475 11.6591C127.1 12.2386 127.413 13 127.413 13.9432C127.413 14.8011 127.16 15.554 126.654 16.2017C126.154 16.8494 125.467 17.3551 124.592 17.7188C123.722 18.0767 122.719 18.2557 121.583 18.2557C119.85 18.2557 118.469 17.8949 117.441 17.1733C116.418 16.446 115.819 15.4574 115.643 14.2074L119.214 14.0199C119.322 14.5483 119.583 14.9517 119.998 15.2301C120.413 15.5028 120.944 15.6392 121.592 15.6392C122.228 15.6392 122.739 15.517 123.126 15.2727C123.518 15.0227 123.717 14.7017 123.722 14.3097C123.717 13.9801 123.577 13.7102 123.305 13.5C123.032 13.2841 122.612 13.1193 122.043 13.0057L119.776 12.554C118.498 12.2983 117.546 11.8551 116.921 11.2244C116.302 10.5937 115.992 9.78977 115.992 8.8125C115.992 7.97159 116.219 7.24716 116.674 6.6392C117.134 6.03125 117.779 5.5625 118.609 5.23295C119.444 4.90341 120.421 4.73864 121.54 4.73864C123.194 4.73864 124.495 5.08807 125.444 5.78693C126.398 6.4858 126.955 7.4375 127.114 8.64205Z" fill="white"/>
</svg>
